#N canvas 1285 40 625 1006 12;
#X obj 511 263 hsl 128 15 0 127 0 0 empty empty empty -2 -8 0 10 -262144
-1 -1 12700 1;
#X floatatom 429 333 5 0 0 0 - - -;
#X obj 436 305 / 127;
#X obj 303 356 * -1;
#X obj 272 389 + 0.666;
#X obj 643 340 - 0.333;
#X obj 494 381 pow 2;
#X obj 494 417 * -1;
#X obj 487 453 +;
#X obj 436 418 + 0.25;
#X floatatom 542 490 5 0 0 0 - - -;
#X obj 486 748 outlet~;
#X obj 565 162 inlet;
#X obj 494 162 inlet~;
#X obj 400 162 inlet~;
#X obj 312 162 inlet~;
#X obj 665 427 *~;
#X obj 483 542 *~;
#X obj 300 494 *~;
#X obj 485 663 +~;
#X floatatom 659 496 5 0 0 0 - - -;
#X floatatom 235 438 5 0 0 0 - - -;
#X connect 0 0 2 0;
#X connect 2 0 1 0;
#X connect 2 0 3 0;
#X connect 2 0 5 0;
#X connect 2 0 6 0;
#X connect 2 0 9 0;
#X connect 3 0 4 0;
#X connect 4 0 18 1;
#X connect 4 0 21 0;
#X connect 5 0 16 1;
#X connect 5 0 20 0;
#X connect 6 0 7 0;
#X connect 7 0 8 1;
#X connect 8 0 17 1;
#X connect 8 0 10 0;
#X connect 9 0 8 0;
#X connect 12 0 0 0;
#X connect 13 0 16 0;
#X connect 14 0 17 0;
#X connect 15 0 18 0;
#X connect 16 0 19 0;
#X connect 17 0 19 0;
#X connect 18 0 19 0;
#X connect 19 0 11 0;
