#N canvas 495 23 580 520 10;
#X floatatom 120 118 5 17 500 0 freq - -, f 5;
#X obj 368 329 line~;
#X obj 357 369 *~;
#X obj 288 92 / 128;
#X floatatom 288 123 5 0 1 0 - - -, f 5;
#X obj 341 401 *~;
#X obj 120 70 inlet;
#X obj 235 52 inlet;
#X obj 370 55 inlet;
#X obj 343 433 outlet~;
#X msg 337 293 \$1 100;
#X obj 119 161 phasor~ 440;
#X obj 121 212 expr~ $v1 > 0.5;
#X connect 0 0 11 0;
#X connect 1 0 2 1;
#X connect 2 0 5 1;
#X connect 3 0 4 0;
#X connect 4 0 5 0;
#X connect 5 0 9 0;
#X connect 6 0 0 0;
#X connect 7 0 3 0;
#X connect 8 0 10 0;
#X connect 10 0 1 0;
#X connect 11 0 12 0;
#X connect 12 0 2 0;
