#N canvas 0 23 720 832 10;
#X obj 375 440 dac~ 1;
#X floatatom 165 143 4 17 500 2 freq - -, f 4;
#X floatatom 201 142 4 0 128 2 vol - -, f 4;
#X obj 244 143 tgl 15 0 empty empty mute 0 -10 0 10 -262144 -1 -1 0
1;
#X floatatom 332 140 4 17 500 2 freq - -, f 4;
#X floatatom 368 139 4 0 128 2 vol - -, f 4;
#X obj 411 140 tgl 15 0 empty empty mute 0 -10 0 10 -262144 -1 -1 0
1;
#X floatatom 493 141 4 17 500 2 freq - -, f 4;
#X floatatom 529 140 4 0 128 2 vol - -, f 4;
#X obj 572 141 tgl 15 0 empty empty mute 0 -10 0 10 -262144 -1 -1 0
1;
#X obj 373 344 *~ 0.3;
#X obj 171 182 single-osc;
#X obj 338 179 single-osc;
#X obj 499 181 single-osc;
#X connect 1 0 11 0;
#X connect 2 0 11 1;
#X connect 3 0 11 2;
#X connect 4 0 12 0;
#X connect 5 0 12 1;
#X connect 6 0 12 2;
#X connect 7 0 13 0;
#X connect 8 0 13 1;
#X connect 9 0 13 2;
#X connect 10 0 0 0;
#X connect 11 0 10 0;
#X connect 12 0 10 0;
#X connect 13 0 10 0;
