#N canvas 495 23 481 526 10;
#X obj 79 97 osc~ 440;
#X floatatom 79 57 5 17 500 0 freq - -, f 5;
#X obj 327 268 line~;
#X obj 316 308 *~;
#X obj 247 31 / 128;
#X floatatom 247 62 5 0 1 0 - - -, f 5;
#X obj 300 340 *~;
#X obj 79 9 inlet;
#X obj 194 -9 inlet;
#X obj 329 -6 inlet;
#X obj 302 372 outlet~;
#X msg 296 232 \$1 100;
#X connect 0 0 3 0;
#X connect 1 0 0 0;
#X connect 2 0 3 1;
#X connect 3 0 6 1;
#X connect 4 0 5 0;
#X connect 5 0 6 0;
#X connect 6 0 10 0;
#X connect 7 0 1 0;
#X connect 8 0 4 0;
#X connect 9 0 11 0;
#X connect 11 0 2 0;
